# xmcd
#
# Track frame offsets:
#	150
#	15912
#	31489
#	48141
#	64855
#	84532
#	99947
#	113166
#	131561
#	145068
#
# Disc length: 2172 seconds
#
# Revision: 0
# Processed by: cddbd v1.4PL0 Copyright (c) Steve Scherf et al.
# Submitted via: EasyCDDAExtractor 4.5.0.2
#
DISCID=76087a0a
DTITLE=James House - Days Gone By
DYEAR=1900
DGENRE=Country
TTITLE0=This Is Me Missing You
TTITLE1=A Real Good Way To End Up Lonesome
TTITLE2=Until You Set Me Free
TTITLE3=Anything For Love
TTITLE4=Little By Little
TTITLE5=Only A Fool
TTITLE6=Silence Makes A Lonesome Sound
TTITLE7=Days Gone By
TTITLE8=Take Me Away
TTITLE9=That's Something
EXTD=
EXTT0=
EXTT1=
EXTT2=
EXTT3=
EXTT4=
EXTT5=
EXTT6=
EXTT7=
EXTT8=
EXTT9=(YOU DON'T SEE EVERY DAY)
PLAYORDER=
